<svg width="185" height="49" viewBox="0 0 185 49" fill="none" xmlns="http://www.w3.org/2000/svg">
<g filter="url(#filter0_i_2101_61)">
<path d="M22.8978 13.2694V36.499H17.1899V18.2804H9.49096V26.6762C9.49096 28.8443 9.17017 30.6695 8.52859 32.1518C7.90914 33.6119 6.92464 34.707 5.57511 35.4371C4.22558 36.145 2.47783 36.499 0.331852 36.499V31.7535C0.884938 31.7535 1.37165 31.6429 1.792 31.4217C2.23447 31.2005 2.59951 30.8907 2.88711 30.4925C3.19684 30.0722 3.42914 29.5633 3.584 28.966C3.73886 28.3687 3.8163 27.716 3.8163 27.0081V13.2694H22.8978ZM50.5919 19.11L29.3201 37.6605L29.4861 30.6584L50.7578 12.1079L50.5919 19.11ZM34.6961 13.2694V32.1518L29.3201 37.6605V13.2694H34.6961ZM50.7578 12.1079V36.499H45.3486V17.8158L50.7578 12.1079ZM69.1074 22.2294L64.2623 35.5035H57.7912L69.1074 12.1079L80.3903 35.5035H73.9192L69.1074 22.2294ZM76.74 36.499H61.4416V40.1494H55.8665V31.6872H82.3151V40.1494H76.74V36.499ZM89.3449 26.5435V22.0303H98.2053C99.7097 22.0303 101.048 22.34 102.221 22.9595C103.415 23.5568 104.356 24.3975 105.041 25.4815C105.749 26.5435 106.103 27.7934 106.103 29.2315C106.103 30.6474 105.749 31.9084 105.041 33.0146C104.356 34.0986 103.415 34.9504 102.221 35.5698C101.048 36.1893 99.7097 36.499 98.2053 36.499H89.3449V31.8863H96.9775C97.7076 31.8863 98.327 31.7978 98.8359 31.6208C99.3447 31.4217 99.7319 31.123 99.9973 30.7248C100.263 30.3266 100.396 29.8288 100.396 29.2315C100.396 28.612 100.263 28.1142 99.9973 27.7381C99.7319 27.3399 99.3447 27.0412 98.8359 26.8421C98.327 26.643 97.7076 26.5435 96.9775 26.5435H89.3449ZM87.7852 13.2694H104.345V17.8821H93.493V36.499H87.7852V13.2694ZM114.374 32.019L114.772 27.7381H126.288L126.653 32.019H114.374ZM120.447 21.798L117.195 29.2978L117.46 30.5257L114.573 36.499H108.235L120.447 11.8092L132.692 36.499H126.321L123.533 30.758L123.732 29.331L120.447 21.798ZM138.014 26.7758V21.7316H155.602V26.7758H138.014ZM152.051 13.2694H157.659V36.499H152.051V13.2694ZM136.454 13.2694H142.062V36.499H136.454V13.2694ZM163.869 13.2694H169.677V36.499H163.869V13.2694ZM177.575 13.2694H184.145L174.721 24.1541L184.643 36.499H177.84L168.051 24.3201L177.575 13.2694Z" fill="#0495F6"/>
</g>
<defs>
<filter id="filter0_i_2101_61" x="0.331848" y="11.8092" width="184.311" height="28.3402" filterUnits="userSpaceOnUse" color-interpolation-filters="sRGB">
<feFlood flood-opacity="0" result="BackgroundImageFix"/>
<feBlend mode="normal" in="SourceGraphic" in2="BackgroundImageFix" result="shape"/>
<feColorMatrix in="SourceAlpha" type="matrix" values="0 0 0 0 0 0 0 0 0 0 0 0 0 0 0 0 0 0 127 0" result="hardAlpha"/>
<feOffset/>
<feGaussianBlur stdDeviation="1.5"/>
<feComposite in2="hardAlpha" operator="arithmetic" k2="-1" k3="1"/>
<feColorMatrix type="matrix" values="0 0 0 0 1 0 0 0 0 1 0 0 0 0 1 0 0 0 0.49 0"/>
<feBlend mode="normal" in2="shape" result="effect1_innerShadow_2101_61"/>
</filter>
</defs>
</svg>
