<svg width="22" height="23" viewBox="0 0 22 23" fill="none" xmlns="http://www.w3.org/2000/svg">
<path fill-rule="evenodd" clip-rule="evenodd" d="M11.0082 22.9667C17.0781 22.9667 21.9999 18.0449 21.9999 11.975C21.9999 5.90516 17.0781 0.983398 11.0082 0.983398C4.93836 0.983398 0.0166016 5.90516 0.0166016 11.975C0.0166016 18.0449 4.93793 22.9667 11.0082 22.9667Z" fill="#003399"/>
<path d="M11.0088 3.42578L10.7348 4.26819H9.84863L10.5631 4.78728L10.2943 5.63613L11.0088 5.11703L11.7224 5.63613L11.4544 4.78728L12.1689 4.26819H11.2836L11.0088 3.42578Z" fill="#0676F9"/>
<path d="M11.2836 18.9235L11.0088 18.0811L10.7348 18.9235H9.84863L10.5631 19.4426L10.2943 20.2914L11.0088 19.7723L11.7224 20.2914L11.4536 19.4426L12.168 18.9235H11.2836Z" fill="#0676F9"/>
<path d="M3.68064 12.4471L4.3951 12.9623L4.12632 12.1135L4.84077 11.5944H3.95543L3.68064 10.752L3.40585 11.5944H2.52051L3.23496 12.1135L2.96618 12.9623L3.68064 12.4471Z" fill="#0676F9"/>
<path d="M7.34287 4.4082L7.06808 5.25104H6.18359L6.89805 5.77615L6.62927 6.61855L7.34287 6.09215L8.05732 6.61726L7.78854 5.77486L8.50343 5.24975H7.6198L7.34287 4.4082Z" fill="#0676F9"/>
<path d="M4.66404 7.08984L4.38925 7.93225H3.50391L4.21836 8.45135L3.94357 9.30019L4.66404 8.78109L5.37849 9.30019L5.1037 8.45135L5.82417 7.93225H4.9384L4.66404 7.08984Z" fill="#0676F9"/>
<path d="M4.9384 15.2594L4.66361 14.417L4.38882 15.2594H3.50391L4.21836 15.7785L3.94357 16.6273L4.66404 16.1082L5.37849 16.6273L5.1037 15.7785L5.82417 15.2594H4.9384Z" fill="#0676F9"/>
<path d="M7.61938 17.9432L7.34287 17.0986L7.06979 17.9432H6.18359L6.89805 18.4683L6.63013 19.3086L7.34287 18.7834L8.05732 19.3086L7.78854 18.4661L8.50472 17.9432H7.61938Z" fill="#0676F9"/>
<path d="M19.4964 11.5963H18.611L18.3362 10.7539L18.0614 11.5963H17.1748L17.8893 12.1154L17.6218 12.9625L18.3362 12.4473L19.0507 12.9625L18.7819 12.1137L19.4964 11.5963Z" fill="#0676F9"/>
<path d="M14.6719 4.4082L14.3971 5.25104H13.5117L14.2262 5.77615L13.9574 6.61855L14.6719 6.09215L15.3863 6.61726L15.1175 5.77486L15.832 5.24975H14.9466L14.6719 4.4082Z" fill="#0676F9"/>
<path d="M16.9138 8.45135L16.639 9.30019L17.3535 8.78109L18.074 9.30019L17.7992 8.45135L18.5136 7.93225H17.6283L17.3535 7.08984L17.0787 7.93225H16.1934L16.9138 8.45135Z" fill="#0676F9"/>
<path d="M17.6273 15.2594L17.3525 14.417L17.0777 15.2594H16.1924L16.9128 15.7785L16.6381 16.6273L17.3525 16.1082L18.073 16.6273L17.7982 15.7785L18.5131 15.2594H17.6273Z" fill="#0676F9"/>
<path d="M14.9466 17.943L14.6719 17.1006L14.3971 17.943H13.5117L14.2262 18.4681L13.9574 19.3105L14.6719 18.7854L15.3863 19.3105L15.1175 18.4681L15.832 17.943H14.9466Z" fill="#0676F9"/>
</svg>
