<svg width="18" height="18" viewBox="0 0 18 18" fill="none" xmlns="http://www.w3.org/2000/svg">
<path d="M17.9539 0.883277L11.5441 17.5879C11.4974 17.7089 11.4152 17.813 11.3083 17.8865C11.2014 17.9601 11.0748 17.9996 10.945 18H10.8999C10.7631 17.9899 10.633 17.9363 10.5287 17.8471C10.4244 17.7579 10.3514 17.6378 10.3202 17.5041L8.47778 9.51892L0.489783 7.69648C0.357303 7.66378 0.238632 7.58988 0.150878 7.48541C0.0631229 7.38095 0.0108178 7.25133 0.00150305 7.11524C-0.00781174 6.97915 0.0263448 6.84362 0.0990486 6.72818C0.171752 6.61274 0.279248 6.52337 0.406038 6.47294L17.1164 0.046116C17.2335 -0.00072724 17.3617 -0.0121943 17.4853 0.0131362C17.6088 0.0384667 17.7222 0.0994809 17.8113 0.188615C17.9005 0.277748 17.9615 0.391082 17.9869 0.514565C18.0122 0.638048 18.0007 0.76625 17.9539 0.883277Z" fill="#4D4D4D"/>
</svg>
