<svg width="24" height="24" viewBox="0 0 24 24" fill="none" xmlns="http://www.w3.org/2000/svg">
<path d="M18.7626 8.2312C18.697 8.09039 18.5558 8.00002 18.4002 8.00002H13.6602L18.3382 0.614016C18.4162 0.490828 18.421 0.334828 18.3506 0.207234C18.2802 0.0792188 18.1458 0 18.0002 0H11.6002C11.4486 0 11.3102 0.0855937 11.2422 0.221203L5.24219 12.2212C5.18018 12.3448 5.18697 12.492 5.25977 12.61C5.33299 12.728 5.46138 12.8 5.60018 12.8H9.71336L5.23136 23.4448C5.15496 23.6268 5.22297 23.838 5.39135 23.9412C5.45613 23.9808 5.52813 24 5.59975 24C5.71455 24 5.82775 23.9507 5.90618 23.858L18.7062 8.65795C18.8065 8.5388 18.8282 8.37239 18.7626 8.2312Z" fill="white"/>
</svg>
